<svg width="35" height="35" viewBox="0 0 35 35" fill="none" xmlns="http://www.w3.org/2000/svg">
<path d="M17.5 0C7.83475 0 0 7.83475 0 17.5C0 27.1652 7.83475 35 17.5 35C27.1652 35 35 27.1652 35 17.5C35 7.83475 27.1652 0 17.5 0ZM17.5 32.375C15.5465 32.3749 13.6121 31.99 11.8073 31.2423C10.0025 30.4946 8.3627 29.3988 6.98142 28.0173C5.60015 26.6359 4.5045 24.9959 3.75702 23.1911C3.00955 21.3862 2.62488 19.4518 2.625 17.4982C2.62511 15.5447 3.01 13.6103 3.75769 11.8056C4.50538 10.0008 5.60123 8.36095 6.98266 6.97967C8.3641 5.5984 10.0041 4.50275 11.8089 3.75527C13.6138 3.0078 15.5482 2.62314 17.5018 2.62325C21.4471 2.62348 25.2307 4.19098 28.0203 6.98091C30.8099 9.77084 32.377 13.5547 32.3767 17.5C32.3765 21.4453 30.809 25.229 28.0191 28.0186C25.2292 30.8082 21.4453 32.3752 17.5 32.375ZM17.5 18.375C12.1835 18.375 7.875 21.399 7.875 24.5C7.875 27.601 12.1835 30.625 17.5 30.625C22.8165 30.625 27.125 27.601 27.125 24.5C27.125 21.399 22.8165 18.375 17.5 18.375ZM17.5 17.5C18.8924 17.5 20.2277 16.9469 21.2123 15.9623C22.1969 14.9777 22.75 13.6424 22.75 12.25C22.75 10.8576 22.1969 9.52226 21.2123 8.53769C20.2277 7.55312 18.8924 7 17.5 7C16.1076 7 14.7723 7.55312 13.7877 8.53769C12.8031 9.52226 12.25 10.8576 12.25 12.25C12.25 13.6424 12.8031 14.9777 13.7877 15.9623C14.7723 16.9469 16.1076 17.5 17.5 17.5Z" fill="black"/>
</svg>
