<svg width="36" height="27" viewBox="0 0 36 27" fill="none" xmlns="http://www.w3.org/2000/svg">
<path d="M24.3652 11.1583L35.9999 22.7906V3.22611L24.3652 11.1583Z" fill="black"/>
<path d="M0 3.22611V22.7906L11.6323 11.1583L0 3.22611Z" fill="black"/>
<path d="M17.9981 16.3223L12.5566 12.6129L0.0939941 25.0755C0.392319 26.1577 1.37977 26.13 2.55688 26.13H33.4416C34.6187 26.13 35.6039 26.1554 35.9045 25.0755L23.4419 12.6129L18.0004 16.3223H17.9981Z" fill="black"/>
<path d="M17.9987 13.346C17.9987 13.346 35.845 1.17711 35.9213 1.12392C35.6693 0.101751 34.8044 0.143401 33.7406 0.0208337C33.6412 0.00927069 33.5417 0 33.4423 0H2.55756C2.45581 0 2.35636 0.00927069 2.25923 0.0208337C1.17693 0.145714 0.302779 0.127206 0.0668945 1.17019C0.115459 1.18869 18.0011 13.346 18.0011 13.346H17.9987Z" fill="black"/>
</svg>
