<svg width="29" height="29" viewBox="0 0 29 29" fill="none" xmlns="http://www.w3.org/2000/svg">
<path d="M29 25.7778V23.126C29 21.8084 28.1978 20.6236 26.9745 20.1342L23.6973 18.8233C22.1413 18.201 20.368 18.8752 19.6185 20.3741L19.3333 20.9444C19.3333 20.9444 15.3056 20.1389 12.0833 16.9167C8.86111 13.6944 8.05556 9.66667 8.05556 9.66667L8.62592 9.38149C10.1248 8.63203 10.799 6.85872 10.1767 5.30274L8.86576 2.02552C8.37643 0.802176 7.19159 0 5.87401 0H3.22222C1.44264 0 0 1.44264 0 3.22222C0 17.4589 11.5411 29 25.7778 29C27.5574 29 29 27.5574 29 25.7778Z" fill="black"/>
</svg>
