<svg width="60" height="60" viewBox="0 0 60 60" fill="none" xmlns="http://www.w3.org/2000/svg">
<path d="M52.6263 8.61453L6.11654 26.4876C4.58739 27.074 4.64201 29.2448 6.1999 29.7568L17.9473 33.6037L23.0809 49.3689C23.0809 49.3689 23.0867 49.3832 23.0895 49.3889C23.0895 49.3918 23.0895 49.3975 23.0924 49.4004C23.0982 49.4175 23.1067 49.4289 23.1182 49.4432C23.2734 49.735 23.6816 49.8323 23.9518 49.5806L31.9626 42.0612L44.4085 51.1622C45.4404 51.9144 46.9063 51.3453 47.1535 50.0982L54.9659 10.5738C55.2304 9.23235 53.9082 8.12545 52.6263 8.62026V8.61453ZM24.2421 36.3237L23.3999 46.3028L19.4276 34.1014L42.7673 19.3744L24.2421 36.3237Z" fill="white"/>
</svg>
