<svg width="36" height="31" viewBox="0 0 36 31" fill="none" xmlns="http://www.w3.org/2000/svg">
<path d="M34.2909 0.0825696L0.803905 12.9678C-0.297082 13.3905 -0.257753 14.9556 0.86393 15.3247L9.32205 18.098L13.0182 29.4636C13.0182 29.4636 13.0224 29.4739 13.0245 29.4781C13.0245 29.4801 13.0245 29.4843 13.0265 29.4863C13.0307 29.4987 13.0368 29.5069 13.0451 29.5172C13.1569 29.7275 13.4508 29.7977 13.6453 29.6162L19.4131 24.1953L28.3741 30.7565C29.1171 31.2988 30.1725 30.8884 30.3505 29.9894L35.9755 1.49504C36.1659 0.527976 35.2139 -0.270024 34.2909 0.0866976V0.0825696ZM13.8543 20.059L13.2479 27.2532L10.3879 18.4568L27.1924 7.83971L13.8543 20.059Z" fill="black"/>
</svg>
