<svg width="60" height="60" viewBox="0 0 60 60" fill="none" xmlns="http://www.w3.org/2000/svg">
<path d="M49.8254 47.5H58.0114C59.6627 47.5 60.594 45.6084 59.5763 44.3092L48.6957 30.4283C53.6752 24.6964 56.2033 18.4867 57.3138 15.0857C57.7298 13.8088 56.7762 12.5 55.4257 12.5H48.1421C47.1628 12.5 46.3372 13.2133 46.1836 14.175C45.4411 18.7892 40.8969 24.7728 37.8119 28.3903C36.823 29.5526 34.9157 28.8488 34.9157 27.3267V14.4743C34.9157 13.3821 34.0261 12.5 32.9316 12.5H22.467C21.5581 12.5 20.8221 13.2324 20.8221 14.1368C20.8221 14.6909 21.0973 15.2099 21.5677 15.5061C22.3166 15.9837 23.363 16.8435 23.363 17.9358V29.2883C23.363 30.1194 22.3326 30.5079 21.7757 29.8869C18.8796 26.6548 12.9528 19.5025 12.0952 14.175C11.9416 13.2101 11.1159 12.5 10.1367 12.5H1.98577C0.7025 12.5 -0.244725 13.691 0.056092 14.9329C1.9058 22.6456 9.43901 46.1179 32.8356 47.4395C33.9684 47.5032 34.9157 46.5829 34.9093 45.4556L34.8581 36.2526C39.6488 33.0523 46.1899 43.2615 48.1165 46.5287C48.4717 47.1338 49.1213 47.5 49.8254 47.5Z" fill="white"/>
</svg>
