<svg width="36" height="37" viewBox="0 0 36 37" fill="none" xmlns="http://www.w3.org/2000/svg">
<path fill-rule="evenodd" clip-rule="evenodd" d="M18.3279 32.2878C15.309 32.2878 12.5024 31.3946 10.1539 29.8476L4.4451 31.6673L6.29807 26.1896C4.52004 23.7578 3.46865 20.7701 3.46865 17.543C3.46865 17.062 3.49361 16.5832 3.54358 16.1106C4.27228 8.64657 10.6266 2.79615 18.33 2.79615C26.0334 2.79615 32.546 8.79439 33.1414 16.3916C33.1747 16.7726 33.1914 17.1536 33.1914 17.5409C33.1914 25.6753 26.5227 32.2857 18.33 32.2857L18.3279 32.2878ZM35.9937 17.0953C35.7543 7.61389 27.9426 0 18.3279 0C8.7132 0 1.08477 7.43902 0.670451 16.7727C0.662123 17.0287 0.653778 17.2848 0.653778 17.543C0.653778 20.8617 1.58025 23.9556 3.18548 26.6039L0 36.0125L9.78751 32.9019C12.3192 34.2927 15.232 35.086 18.3258 35.086C28.0904 35.086 36 27.2326 36 17.5451C36 17.3952 36 17.2473 35.9917 17.0974L35.9937 17.0953Z" fill="black"/>
<path fill-rule="evenodd" clip-rule="evenodd" d="M26.4289 21.0845C25.9896 20.87 23.8638 19.827 23.4662 19.6854C23.0685 19.5355 22.7791 19.4709 22.4897 19.8998C22.2003 20.3308 21.3654 21.2989 21.1156 21.58C20.8595 21.8694 20.6117 21.9027 20.1724 21.6883C19.7414 21.4738 18.3444 21.0262 16.6892 19.5542C15.4067 18.4216 14.5302 17.0142 14.2824 16.5832C14.0347 16.1522 14.2574 15.9211 14.4719 15.7067C14.6696 15.5089 15.4567 14.4408 15.5566 14.2347C15.7065 13.9453 15.6315 13.6975 15.5233 13.481C15.415 13.2665 14.5468 11.1471 14.1825 10.2872C13.8265 9.42733 13.4621 9.57515 13.206 9.57515C12.9499 9.57515 12.6689 9.53352 12.3795 9.53352C12.0901 9.53352 11.6175 9.64177 11.2219 10.0707C10.8242 10.5016 9.70825 11.5426 9.70825 13.6621C9.70825 14.1576 9.79987 14.6552 9.93104 15.1258C10.3703 16.6394 11.3135 17.8886 11.478 18.1051C11.6924 18.3862 14.474 22.8708 18.8753 24.601C23.285 26.3145 23.285 25.7419 24.0803 25.6691C24.8736 25.6024 26.6454 24.6343 27.0014 23.6245C27.3658 22.6231 27.3658 21.7632 27.2575 21.58C27.1492 21.4072 26.8598 21.2989 26.4309 21.0845H26.4289Z" fill="black"/>
</svg>
