<svg width="280" height="41" viewBox="0 0 280 41" fill="none" xmlns="http://www.w3.org/2000/svg">
<g clip-path="url(#clip0_2127_321)">
<path d="M2.78087 41H0V6.61476H2.78087V9.77957C3.73681 8.72462 5.04034 7.84076 6.66253 7.15648C8.28471 6.4722 9.93585 6.13005 11.6449 6.13005C15.0921 6.13005 17.8151 7.24201 19.8717 9.46593C21.9284 11.6899 22.9423 14.5696 22.9423 18.1335C22.9423 21.84 21.7836 24.8909 19.4951 27.2857C17.1778 29.6808 14.1651 30.8783 10.5152 30.8783C7.24188 30.8783 4.66377 30.2225 2.78087 28.8825V41ZM10.9208 8.72462C9.3565 8.72462 7.82123 9.06677 6.31491 9.77957C4.83757 10.4924 3.64991 11.3762 2.80985 12.4312V26.1168C5.04034 27.571 7.53156 28.2837 10.3414 28.2837C13.2092 28.2837 15.5266 27.3428 17.3226 25.4895C19.1185 23.6077 20.0165 21.2129 20.0165 18.3046C20.0165 15.3679 19.2055 13.0584 17.6123 11.3192C15.9611 9.57998 13.7306 8.72462 10.9208 8.72462Z" fill="#1A171B"/>
<path d="M32.5597 30.4222H29.7788V6.61474H32.5597V9.77955C34.1819 7.38455 36.3255 6.18706 39.0484 6.18706C40.7284 6.18706 41.9741 6.50069 42.8141 7.09945L41.8583 9.69402C40.8154 9.09527 39.6857 8.78163 38.469 8.78163C36.0648 8.78163 34.0949 10.0647 32.5597 12.6307V30.4222Z" fill="#1A171B"/>
<path d="M58.3983 30.8784C54.6614 30.8784 51.6198 29.7093 49.2734 27.3999C46.8982 25.0619 45.7395 22.0968 45.7395 18.5042C45.7395 14.9117 46.9272 11.9465 49.2734 9.60852C51.6488 7.27056 54.6904 6.13008 58.3983 6.13008C62.1351 6.13008 65.1767 7.29907 67.523 9.60852C69.8984 11.9465 71.0571 14.9117 71.0571 18.5042C71.0571 22.0968 69.8694 25.0619 67.523 27.3999C65.1767 29.7378 62.1351 30.8784 58.3983 30.8784ZM58.3983 28.2837C61.295 28.2837 63.6414 27.3713 65.3795 25.5751C67.2044 23.7504 68.1314 21.3839 68.1314 18.4756C68.1314 15.6245 67.2044 13.2865 65.3795 11.4333C63.5546 9.60852 61.2372 8.69615 58.3983 8.69615C55.6174 8.69615 53.271 9.60852 51.4171 11.4333C49.5921 13.258 48.6652 15.6245 48.6652 18.4756C48.6652 21.3268 49.5921 23.6648 51.4171 25.5181C53.242 27.3713 55.5884 28.2837 58.3983 28.2837Z" fill="#1A171B"/>
<path d="M90.4364 24.178C90.4364 23.0945 89.973 22.2107 89.075 21.5265C88.148 20.8707 87.0473 20.3289 85.7437 19.9298C84.4402 19.5306 83.1077 19.103 81.8041 18.6468C80.4716 18.1621 79.3709 17.4208 78.4439 16.3658C77.5169 15.3394 77.0824 13.9993 77.0824 12.4312C77.0824 10.5209 77.8066 9.00976 79.2261 7.86928C80.6453 6.72881 82.5283 6.15857 84.8747 6.15857C88.206 6.15857 90.7262 7.04244 92.4641 8.81017L91.2475 10.8345C89.5964 9.32338 87.4818 8.55356 84.9036 8.55356C83.4842 8.55356 82.2965 8.92421 81.3696 9.63701C80.4426 10.3498 80.0081 11.2622 80.0081 12.3741C80.0081 13.5146 80.4716 14.427 81.3696 15.1398C82.2965 15.8526 83.3972 16.4229 84.7009 16.822C86.0044 17.2212 87.3368 17.6488 88.6405 18.105C89.973 18.5612 91.0737 19.2741 92.0007 20.2719C92.9276 21.2698 93.3621 22.5244 93.3621 24.0354C93.3621 26.1739 92.5511 27.856 90.9289 29.0536C89.3067 30.2511 87.2211 30.8499 84.6719 30.8499C83.1077 30.8499 81.4565 30.5076 79.7184 29.7949C78.0962 29.139 76.9955 28.3408 76.3872 27.4284L77.9514 25.6322C78.6177 26.4305 79.6606 27.1148 81.022 27.628C82.4125 28.1696 83.7449 28.4263 84.9906 28.4263C86.5548 28.4263 87.8583 28.0557 88.8722 27.2858C89.915 26.5731 90.4364 25.5181 90.4364 24.178Z" fill="#1A171B"/>
<path d="M99.8511 21.3553V0H102.632V6.61474H112.365V9.20931H102.632V20.9562C102.632 25.7462 104.428 28.1412 108.049 28.1412C109.468 28.1412 110.772 27.7136 111.931 26.8581L112.858 29.0251C111.38 30.1655 109.584 30.7072 107.441 30.7072C102.371 30.7357 99.8511 27.5995 99.8511 21.3553Z" fill="#1A171B"/>
<path d="M121.866 30.4222H119.085V6.61474H121.866V9.77955C123.488 7.38455 125.631 6.18706 128.354 6.18706C130.034 6.18706 131.28 6.50069 132.12 7.09945L131.164 9.69402C130.121 9.09527 128.992 8.78163 127.775 8.78163C125.371 8.78163 123.401 10.0647 121.866 12.6307V30.4222Z" fill="#1A171B"/>
<path d="M137.51 10.5779L136.757 8.29699C139.161 6.84288 141.71 6.13008 144.433 6.13008C147.591 6.13008 149.879 6.89991 151.298 8.46805C152.718 10.0077 153.413 12.4312 153.413 15.653V30.4222H150.632V26.7727C148.662 29.4243 145.91 30.7358 142.348 30.7358C140.088 30.7358 138.292 30.0799 136.931 28.7969C135.569 27.5139 134.903 25.8033 134.903 23.6363C134.903 21.2983 135.772 19.5021 137.481 18.1906C139.161 16.8791 141.363 16.2232 144.086 16.2232C146.808 16.2232 148.981 16.822 150.632 18.0194C150.632 15.539 150.458 13.6572 150.082 12.3742C149.792 11.0911 149.213 10.2073 148.344 9.66554C147.475 9.12383 146.113 8.8102 144.288 8.72465C142.087 8.72465 139.827 9.35192 137.51 10.5779ZM143.217 28.1413C146.229 28.1413 148.691 26.8866 150.632 24.3777V20.4145C148.865 19.1315 146.78 18.5042 144.346 18.5042C142.521 18.5042 140.986 18.9318 139.711 19.8158C138.466 20.6997 137.828 21.9256 137.828 23.4653C137.828 24.8624 138.321 26.0028 139.335 26.8581C140.349 27.7136 141.623 28.1413 143.217 28.1413Z" fill="#1A171B"/>
<path d="M164.217 30.4222H161.436V6.61474H164.217V9.95062C165.23 8.86718 166.505 7.95479 168.098 7.24199C169.692 6.52921 171.284 6.18706 172.906 6.18706C176.267 6.18706 178.787 7.04242 180.497 8.78163C182.176 10.5209 183.017 13.201 183.017 16.822V30.4222H180.236V17.3352C180.236 11.6328 177.57 8.75313 172.27 8.75313C170.735 8.75313 169.227 9.09527 167.75 9.77955C166.273 10.4638 165.086 11.3477 164.217 12.4026V30.4222Z" fill="#1A171B"/>
<path d="M203.554 24.178C203.554 23.0945 203.091 22.2107 202.192 21.5265C201.266 20.8707 200.164 20.3289 198.861 19.9298C197.557 19.5306 196.226 19.103 194.922 18.6468C193.589 18.1621 192.488 17.4208 191.562 16.3658C190.634 15.3394 190.2 13.9993 190.2 12.4312C190.2 10.5209 190.924 9.00976 192.344 7.86928C193.763 6.72881 195.646 6.15857 197.993 6.15857C201.324 6.15857 203.844 7.04244 205.581 8.81017L204.394 10.863C202.743 9.35189 200.628 8.58208 198.049 8.58208C196.631 8.58208 195.444 8.95273 194.516 9.66553C193.589 10.3783 193.154 11.2907 193.154 12.4027C193.154 13.5431 193.619 14.4555 194.516 15.1683C195.444 15.8811 196.543 16.4514 197.847 16.8505C199.151 17.2497 200.483 17.6774 201.787 18.1335C203.12 18.5897 204.219 19.3024 205.147 20.3004C206.074 21.2983 206.509 22.5529 206.509 24.064C206.509 26.2024 205.698 27.8846 204.075 29.082C202.453 30.2796 200.367 30.8784 197.818 30.8784C196.253 30.8784 194.603 30.5361 192.866 29.8234C191.243 29.1676 190.142 28.3693 189.534 27.4569L191.097 25.6607C191.764 26.459 192.807 27.1433 194.169 27.6566C195.559 28.1981 196.892 28.4548 198.137 28.4548C199.701 28.4548 201.005 28.0842 202.019 27.3143C203.032 26.5731 203.554 25.5181 203.554 24.178Z" fill="#1A171B"/>
<path d="M212.941 21.3553V0H215.721V6.61474H225.454V9.20931H215.721V20.9562C215.721 25.7462 217.517 28.1412 221.138 28.1412C222.557 28.1412 223.861 27.7136 225.02 26.8581L225.947 29.0251C224.47 30.1655 222.674 30.7072 220.53 30.7072C215.49 30.7357 212.941 27.5995 212.941 21.3553Z" fill="#1A171B"/>
<path d="M249.554 6.61479H252.509L241.588 30.7358H239.648L228.321 6.61479H231.594L238.517 21.5835C239.531 23.8074 240.255 25.5466 240.72 26.8296C241.327 25.1475 242.051 23.3512 242.862 21.4409L249.554 6.61479Z" fill="url(#paint0_linear_2127_321)"/>
<path d="M267.342 30.8784C263.606 30.8784 260.565 29.7093 258.218 27.3999C255.842 25.0619 254.683 22.0968 254.683 18.5042C254.683 14.9117 255.872 11.9465 258.218 9.60852C260.592 7.27056 263.635 6.13008 267.342 6.13008C271.08 6.13008 274.121 7.29907 276.467 9.60852C278.843 11.9465 280.001 14.9117 280.001 18.5042C280.001 22.0968 278.814 25.0619 276.467 27.3999C274.092 29.7378 271.05 30.8784 267.342 30.8784ZM267.342 28.2837C270.239 28.2837 272.586 27.3713 274.323 25.5751C276.148 23.7504 277.075 21.3839 277.075 18.4756C277.075 15.6245 276.148 13.2865 274.323 11.4333C272.498 9.60852 270.181 8.69615 267.342 8.69615C264.561 8.69615 262.215 9.60852 260.361 11.4333C258.535 13.258 257.609 15.6245 257.609 18.4756C257.609 21.3268 258.535 23.6648 260.361 25.5181C262.186 27.3713 264.503 28.2837 267.342 28.2837Z" fill="#1A171B"/>
</g>
<defs>
<linearGradient id="paint0_linear_2127_321" x1="228.318" y1="18.6703" x2="252.498" y2="18.6703" gradientUnits="userSpaceOnUse">
<stop stop-color="#C0163F"/>
<stop offset="1" stop-color="#FC5759"/>
</linearGradient>
<clipPath id="clip0_2127_321">
<rect width="280" height="41" fill="white"/>
</clipPath>
</defs>
</svg>
